PathFileType	4	(X/Y/Z)	 s05c0201.trc
DataRate	CameraRate	NumFrames	NumMarkers	Units	OrigDataRate	OrigDataStartFrame	OrigNumFrames
200	200	4	50	mm	200	501	2000
Frame#	Time	racr			lacr			c7			jug			rlel			rdr			llel			ldr			s2			lic			ric			lasi			rasi			rpsi			lpsi			rgt			lgt			rth1			rth2			rth3			rth4			rlfc			rmfc			rsh1			rsh2			rsh3			rsh4			rlmal			rmmal			rcal			rtoe			rmt5			lth1			lth2			lth4			lth3			llfc			lmfc			lsh1			lsh2			lsh3			lsh4			llmal			lmmal			lcal			ltoe			lmt5			SBIKE			LBIKE			RBIKE			
		X1	Y1	Z1	X2	Y2	Z2	X3	Y3	Z3	X4	Y4	Z4	X5	Y5	Z5	X6	Y6	Z6	X7	Y7	Z7	X8	Y8	Z8	X9	Y9	Z9	X10	Y10	Z10	X11	Y11	Z11	X12	Y12	Z12	X13	Y13	Z13	X14	Y14	Z14	X15	Y15	Z15	X16	Y16	Z16	X17	Y17	Z17	X18	Y18	Z18	X19	Y19	Z19	X20	Y20	Z20	X21	Y21	Z21	X22	Y22	Z22	X23	Y23	Z23	X24	Y24	Z24	X25	Y25	Z25	X26	Y26	Z26	X27	Y27	Z27	X28	Y28	Z28	X29	Y29	Z29	X30	Y30	Z30	X31	Y31	Z31	X32	Y32	Z32	X33	Y33	Z33	X34	Y34	Z34	X35	Y35	Z35	X36	Y36	Z36	X37	Y37	Z37	X38	Y38	Z38	X39	Y39	Z39	X40	Y40	Z40	X41	Y41	Z41	X42	Y42	Z42	X43	Y43	Z43	X44	Y44	Z44	X45	Y45	Z45	X46	Y46	Z46	X47	Y47	Z47	X48	Y48	Z48	X49	Y49	Z49	X50	Y50	Z50	
501	2.5050	427.891198	1319.697627	-61.726121	479.394150	1317.474724	-312.175007	406.283407	1403.491757	-197.589576	390.991056	1233.506090	-197.642021	463.680224	1076.264478	64.087103	674.002502	970.764746	-36.270560	466.747515	1119.404115	-545.051081	671.844126	976.365461	-469.341016	-131.965556	1176.726599	-292.824687	40.308242	1181.061313	-415.452670	-5.647025	1217.108017	-140.646743	73.944633	1125.953760	-371.439406	46.211547	1156.508779	-157.333266	-101.940311	1230.005285	-256.917061	-88.298480	1225.841875	-340.909420	-32.136031	1090.283514	-107.493903	-30.988553	1073.306046	-447.068741	76.660923	1029.377983	-93.213499	163.573122	1008.763133	-92.647397	226.389862	947.033310	-96.446817	180.071154	1039.945648	-104.977616	351.655717	863.158312	-121.125682	338.407547	856.479340	-230.120802	294.439230	768.924521	-92.612555	287.294380	680.723173	-101.640324	241.543971	609.092733	-101.853365	317.279345	673.317875	-126.070146	203.867869	479.617904	-106.117078	211.010639	507.471293	-186.337182	136.125546	434.027856	-148.751388	429.566255	466.071253	-144.895219	334.787574	424.443265	-78.386165	69.613733	969.030870	-445.252211	142.193088	925.991777	-429.829381	165.749904	948.995721	-412.529233	185.587252	846.773639	-425.580533	259.439210	721.748553	-390.531012	228.609790	709.358033	-285.479802	184.057175	623.049787	-428.109588	154.072134	541.383525	-419.837568	87.935285	482.920775	-429.841766	176.254097	526.605000	-392.083092	22.322854	379.377404	-433.221593	51.008726	386.668494	-353.219182	-50.179005	374.844728	-392.669046	181.715909	191.030177	-390.398320	80.641782	231.100198	-454.329494	-259.401951	898.176400	-281.231831	-43.611858	84.769923	-475.017653	-51.928883	80.036229	-77.548590	
502	2.5100	428.321558	1318.885689	-61.068957	480.285857	1316.246124	-311.174440	406.949364	1402.688826	-196.867682	391.458316	1232.669208	-196.990686	463.722797	1075.673185	64.897838	674.379299	970.819904	-35.692535	466.742591	1119.168554	-545.088053	671.873834	976.337107	-469.520559	-131.642300	1177.839259	-292.848057	40.085766	1181.594725	-415.284922	-4.908028	1217.449572	-140.066456	73.549166	1126.158600	-371.576741	46.923283	1156.800568	-157.162953	-101.489287	1230.813061	-256.409471	-88.155509	1226.631990	-340.396373	-31.790964	1090.463123	-107.358964	-31.622628	1074.235821	-446.912709	76.340752	1028.217423	-93.001611	162.992689	1006.428861	-92.496779	225.004384	943.976634	-96.420872	179.889271	1037.479698	-104.713033	349.655076	858.996413	-121.038612	336.215058	852.057160	-230.132269	294.071243	763.751671	-92.125678	288.315792	675.298470	-101.196272	243.719224	603.110498	-101.359565	318.204114	668.438216	-125.849806	207.777373	472.704510	-105.545068	214.530874	500.729045	-185.820961	139.958484	427.202162	-148.033742	433.651125	459.934583	-144.928505	339.178585	418.007068	-78.263513	69.197470	970.174523	-445.536668	142.133786	927.687874	-430.154264	165.485959	950.827796	-412.711058	186.101726	848.836003	-426.093859	261.199696	724.316476	-390.694329	230.520527	712.187644	-285.092267	184.183793	626.699891	-428.125549	153.026963	545.519088	-419.796454	85.886377	488.168216	-429.314638	175.152434	530.438661	-392.225927	19.067000	385.904246	-432.748430	48.150053	392.800756	-352.922799	-53.482981	381.762518	-392.148362	177.411153	196.725832	-390.540450	76.422184	237.341422	-454.198246	-259.343953	898.171985	-281.139829	-43.629473	84.778438	-474.997465	-51.935540	80.019367	-77.543633	
503	2.5150	428.795869	1318.080833	-60.591718	481.279225	1315.059331	-310.325107	407.651069	1402.131254	-196.405541	391.917300	1231.910793	-196.441391	463.882088	1075.011205	65.667341	674.690778	970.808022	-35.205796	466.787019	1118.984373	-545.177527	671.855012	976.314553	-469.543612	-131.539332	1178.592434	-292.015203	39.840077	1182.286662	-415.104537	-4.251764	1217.561444	-140.043221	73.142828	1126.529287	-371.753833	47.690408	1157.026759	-156.835781	-101.027713	1231.515298	-255.757331	-87.938118	1227.542907	-339.774905	-31.416135	1090.551232	-107.156696	-32.214225	1075.330296	-446.764392	76.078605	1026.983752	-92.749114	162.422445	1003.869447	-92.352367	223.527370	940.482407	-96.576353	179.752200	1034.757241	-104.468701	347.528649	854.514375	-120.981857	334.232795	846.390210	-229.961657	293.522061	758.171539	-91.713738	289.150584	669.763386	-100.814937	245.657703	596.893255	-100.906940	318.849015	663.516933	-125.679382	211.476160	465.738518	-104.940534	217.761292	493.983091	-185.327473	143.879604	420.020335	-147.371037	437.525556	453.542274	-145.031278	343.229944	411.405206	-78.232715	68.902374	971.576165	-445.730410	142.198582	929.674267	-430.484502	165.354674	952.924738	-412.870756	186.744786	851.121107	-426.529682	263.001724	727.021885	-390.869137	232.340569	715.104146	-285.478318	184.296403	630.637273	-428.291569	152.072501	549.844587	-419.813007	83.990521	493.424205	-428.866654	174.301718	534.269915	-392.512907	15.985146	392.480346	-432.245173	45.574872	399.096695	-352.565633	-56.575725	388.784073	-391.586027	173.358238	202.485310	-390.569669	72.466343	243.827874	-454.171449	-259.297448	898.187083	-281.118222	-43.632861	84.825570	-474.974993	-51.934214	80.033978	-77.511871	
504	2.5200	429.509236	1317.277380	-60.047101	482.165842	1314.004438	-309.622427	408.464573	1401.544801	-195.820394	392.454414	1231.239973	-196.003320	463.968992	1074.549556	66.525580	674.912110	970.714364	-34.871615	466.869806	1118.839244	-545.244058	671.804480	976.292644	-469.460759	-131.300028	1179.465409	-291.431243	39.611393	1182.957825	-414.904735	-3.443317	1217.710036	-139.599097	72.798879	1127.029452	-371.935975	48.432140	1157.164078	-156.547007	-100.431299	1232.289883	-255.079628	-87.611016	1228.346362	-339.230498	-31.023324	1090.494926	-106.935605	-32.702083	1076.469007	-446.644665	75.887438	1025.568375	-92.516259	161.869097	1001.108887	-92.258260	222.222823	937.051709	-96.339498	179.703788	1031.739191	-104.258633	345.216786	849.730651	-120.996564	331.423008	841.588587	-230.502019	292.671028	752.521717	-91.365956	289.730485	664.027977	-100.585332	247.328112	590.381642	-100.502823	319.335041	658.443608	-125.697850	214.930392	458.726097	-104.437386	220.893705	486.953007	-184.985856	147.256423	413.699155	-145.966974	441.124225	446.868236	-145.148231	347.136093	404.630904	-78.112725	68.850186	973.352977	-445.870438	142.518615	931.909621	-430.727767	165.470125	955.286393	-413.033087	187.539482	853.644110	-426.745660	264.959687	729.926681	-391.180360	234.303922	718.106657	-285.631221	184.446805	634.660559	-428.499598	151.210328	554.336826	-419.903195	82.239885	498.916539	-428.537807	173.415165	538.349419	-392.782346	13.270730	399.372764	-431.823142	42.724286	405.871369	-352.204205	-59.462771	396.217635	-391.393040	169.552837	208.654753	-390.628755	68.819584	250.485604	-454.085883	-259.266576	898.234425	-281.095539	-43.628784	84.843522	-474.958698	-51.923802	80.027118	-77.489133	
